<mxfile host="app.diagrams.net" modified="2020-10-14T12:45:15.005Z" agent="5.0 (X11; Linux x86_64) AppleWebKit/537.36 (KHTML, like Gecko) Chrome/85.0.4183.121 Safari/537.36" etag="FxXt2XrHyyY0HbRnBLSS" version="13.8.0" type="github" pages="2">
  <diagram id="vF41xt7C9__Jff4n8CY_" name="UCD">
    <mxGraphModel dx="1064" dy="659" grid="1" gridSize="10" guides="1" tooltips="1" connect="1" arrows="1" fold="1" page="1" pageScale="1" pageWidth="827" pageHeight="1169" math="0" shadow="0">
      <root>
        <mxCell id="0" />
        <mxCell id="1" parent="0" />
        <mxCell id="Y5PJf4Am4ooPDcvSobSb-1" value="Trainer" style="shape=umlActor;verticalLabelPosition=bottom;verticalAlign=top;html=1;" vertex="1" parent="1">
          <mxGeometry x="110" y="300" width="30" height="60" as="geometry" />
        </mxCell>
        <mxCell id="Y5PJf4Am4ooPDcvSobSb-2" value="Create ticket" style="ellipse;whiteSpace=wrap;html=1;" vertex="1" parent="1">
          <mxGeometry x="414" y="10" width="120" height="80" as="geometry" />
        </mxCell>
        <mxCell id="Y5PJf4Am4ooPDcvSobSb-3" value="Update ticket" style="ellipse;whiteSpace=wrap;html=1;" vertex="1" parent="1">
          <mxGeometry x="400" y="110" width="120" height="80" as="geometry" />
        </mxCell>
        <mxCell id="Y5PJf4Am4ooPDcvSobSb-4" value="Delete ticket" style="ellipse;whiteSpace=wrap;html=1;" vertex="1" parent="1">
          <mxGeometry x="440" y="210" width="120" height="80" as="geometry" />
        </mxCell>
        <mxCell id="Y5PJf4Am4ooPDcvSobSb-5" value="Get open ticket" style="ellipse;whiteSpace=wrap;html=1;" vertex="1" parent="1">
          <mxGeometry x="430" y="320" width="120" height="80" as="geometry" />
        </mxCell>
        <mxCell id="Y5PJf4Am4ooPDcvSobSb-6" value="Get completed ticket" style="ellipse;whiteSpace=wrap;html=1;" vertex="1" parent="1">
          <mxGeometry x="414" y="420" width="120" height="80" as="geometry" />
        </mxCell>
        <mxCell id="Y5PJf4Am4ooPDcvSobSb-7" value="" style="endArrow=none;dashed=1;html=1;dashPattern=1 3;strokeWidth=2;" edge="1" parent="1" target="Y5PJf4Am4ooPDcvSobSb-4">
          <mxGeometry width="50" height="50" relative="1" as="geometry">
            <mxPoint x="140" y="320" as="sourcePoint" />
            <mxPoint x="430" y="310" as="targetPoint" />
          </mxGeometry>
        </mxCell>
        <mxCell id="Y5PJf4Am4ooPDcvSobSb-8" value="" style="endArrow=none;dashed=1;html=1;dashPattern=1 3;strokeWidth=2;" edge="1" parent="1" target="Y5PJf4Am4ooPDcvSobSb-3">
          <mxGeometry width="50" height="50" relative="1" as="geometry">
            <mxPoint x="140" y="320" as="sourcePoint" />
            <mxPoint x="190" y="270" as="targetPoint" />
          </mxGeometry>
        </mxCell>
        <mxCell id="Y5PJf4Am4ooPDcvSobSb-9" value="" style="endArrow=none;dashed=1;html=1;dashPattern=1 3;strokeWidth=2;" edge="1" parent="1" target="Y5PJf4Am4ooPDcvSobSb-6">
          <mxGeometry width="50" height="50" relative="1" as="geometry">
            <mxPoint x="140" y="320" as="sourcePoint" />
            <mxPoint x="310" y="420" as="targetPoint" />
          </mxGeometry>
        </mxCell>
        <mxCell id="Y5PJf4Am4ooPDcvSobSb-10" value="" style="endArrow=none;dashed=1;html=1;dashPattern=1 3;strokeWidth=2;" edge="1" parent="1" target="Y5PJf4Am4ooPDcvSobSb-5">
          <mxGeometry width="50" height="50" relative="1" as="geometry">
            <mxPoint x="150" y="320" as="sourcePoint" />
            <mxPoint x="420" y="385" as="targetPoint" />
          </mxGeometry>
        </mxCell>
        <mxCell id="Y5PJf4Am4ooPDcvSobSb-11" value="Trainee" style="shape=umlActor;verticalLabelPosition=bottom;verticalAlign=top;html=1;" vertex="1" parent="1">
          <mxGeometry x="770" y="200" width="30" height="60" as="geometry" />
        </mxCell>
        <mxCell id="Y5PJf4Am4ooPDcvSobSb-12" value="" style="endArrow=none;dashed=1;html=1;dashPattern=1 3;strokeWidth=2;exitX=1.022;exitY=0.304;exitDx=0;exitDy=0;entryX=0;entryY=0.3333333333333333;entryDx=0;entryDy=0;entryPerimeter=0;exitPerimeter=0;" edge="1" parent="1" source="Y5PJf4Am4ooPDcvSobSb-4" target="Y5PJf4Am4ooPDcvSobSb-11">
          <mxGeometry width="50" height="50" relative="1" as="geometry">
            <mxPoint x="620" y="310" as="sourcePoint" />
            <mxPoint x="750" y="430" as="targetPoint" />
          </mxGeometry>
        </mxCell>
        <mxCell id="Y5PJf4Am4ooPDcvSobSb-13" value="" style="endArrow=none;dashed=1;html=1;dashPattern=1 3;strokeWidth=2;entryX=0;entryY=0.3333333333333333;entryDx=0;entryDy=0;entryPerimeter=0;" edge="1" parent="1" source="Y5PJf4Am4ooPDcvSobSb-6" target="Y5PJf4Am4ooPDcvSobSb-11">
          <mxGeometry width="50" height="50" relative="1" as="geometry">
            <mxPoint x="680" y="500" as="sourcePoint" />
            <mxPoint x="730" y="450" as="targetPoint" />
          </mxGeometry>
        </mxCell>
        <mxCell id="Y5PJf4Am4ooPDcvSobSb-14" value="" style="endArrow=none;dashed=1;html=1;dashPattern=1 3;strokeWidth=2;entryX=0;entryY=0.3333333333333333;entryDx=0;entryDy=0;entryPerimeter=0;" edge="1" parent="1" source="Y5PJf4Am4ooPDcvSobSb-5" target="Y5PJf4Am4ooPDcvSobSb-11">
          <mxGeometry width="50" height="50" relative="1" as="geometry">
            <mxPoint x="690" y="500" as="sourcePoint" />
            <mxPoint x="740" y="450" as="targetPoint" />
          </mxGeometry>
        </mxCell>
        <mxCell id="Y5PJf4Am4ooPDcvSobSb-15" value="" style="endArrow=none;dashed=1;html=1;dashPattern=1 3;strokeWidth=2;" edge="1" parent="1" source="Y5PJf4Am4ooPDcvSobSb-2">
          <mxGeometry width="50" height="50" relative="1" as="geometry">
            <mxPoint x="660" y="180" as="sourcePoint" />
            <mxPoint x="770" y="220" as="targetPoint" />
          </mxGeometry>
        </mxCell>
        <mxCell id="Y5PJf4Am4ooPDcvSobSb-16" value="" style="endArrow=none;dashed=1;html=1;dashPattern=1 3;strokeWidth=2;exitX=0.956;exitY=0.721;exitDx=0;exitDy=0;exitPerimeter=0;" edge="1" parent="1" source="Y5PJf4Am4ooPDcvSobSb-3">
          <mxGeometry width="50" height="50" relative="1" as="geometry">
            <mxPoint x="720" y="275" as="sourcePoint" />
            <mxPoint x="770" y="225" as="targetPoint" />
          </mxGeometry>
        </mxCell>
        <mxCell id="Y5PJf4Am4ooPDcvSobSb-17" value="provide solution" style="ellipse;whiteSpace=wrap;html=1;" vertex="1" parent="1">
          <mxGeometry x="414" y="520" width="120" height="80" as="geometry" />
        </mxCell>
        <mxCell id="Y5PJf4Am4ooPDcvSobSb-18" value="" style="endArrow=none;dashed=1;html=1;" edge="1" parent="1" target="Y5PJf4Am4ooPDcvSobSb-17">
          <mxGeometry width="50" height="50" relative="1" as="geometry">
            <mxPoint x="140" y="320" as="sourcePoint" />
            <mxPoint x="190" y="270" as="targetPoint" />
          </mxGeometry>
        </mxCell>
        <mxCell id="Y5PJf4Am4ooPDcvSobSb-19" value="" style="endArrow=none;dashed=1;html=1;dashPattern=1 3;strokeWidth=2;exitX=0.767;exitY=0.096;exitDx=0;exitDy=0;exitPerimeter=0;" edge="1" parent="1" source="Y5PJf4Am4ooPDcvSobSb-17">
          <mxGeometry width="50" height="50" relative="1" as="geometry">
            <mxPoint x="740" y="310" as="sourcePoint" />
            <mxPoint x="790" y="260" as="targetPoint" />
          </mxGeometry>
        </mxCell>
      </root>
    </mxGraphModel>
  </diagram>
  <diagram id="fkP2IkEv2DdQ7T9ErkaS" name="Page-2">
    <mxGraphModel dx="798" dy="494" grid="1" gridSize="10" guides="1" tooltips="1" connect="1" arrows="1" fold="1" page="1" pageScale="1" pageWidth="827" pageHeight="1169" math="0" shadow="0">
      <root>
        <mxCell id="dU9eeJgTwGEJfsgNo73O-0" />
        <mxCell id="dU9eeJgTwGEJfsgNo73O-1" parent="dU9eeJgTwGEJfsgNo73O-0" />
        <mxCell id="VyQ7sG4PmXJxbMCQKmuq-1" value="&lt;div&gt;&lt;span&gt;log In&lt;/span&gt;&lt;/div&gt;&lt;div&gt;&lt;span&gt;&lt;br&gt;&lt;/span&gt;&lt;/div&gt;&lt;div&gt;&lt;span&gt;&lt;br&gt;&lt;/span&gt;&lt;/div&gt;&lt;div&gt;&lt;span&gt;&lt;br&gt;&lt;/span&gt;&lt;/div&gt;&lt;div&gt;&lt;span&gt;&lt;br&gt;&lt;/span&gt;&lt;/div&gt;&lt;div&gt;&lt;span&gt;&lt;br&gt;&lt;/span&gt;&lt;/div&gt;&lt;div&gt;&lt;span&gt;&amp;nbsp;&lt;/span&gt;&lt;/div&gt;" style="whiteSpace=wrap;html=1;aspect=fixed;align=center;" vertex="1" parent="dU9eeJgTwGEJfsgNo73O-1">
          <mxGeometry x="334" y="110" width="110" height="110" as="geometry" />
        </mxCell>
        <mxCell id="VyQ7sG4PmXJxbMCQKmuq-3" value="Trainee" style="rounded=1;whiteSpace=wrap;html=1;" vertex="1" parent="dU9eeJgTwGEJfsgNo73O-1">
          <mxGeometry x="344" y="155" width="90" height="20" as="geometry" />
        </mxCell>
        <mxCell id="VyQ7sG4PmXJxbMCQKmuq-4" value="Trainer" style="rounded=1;whiteSpace=wrap;html=1;" vertex="1" parent="dU9eeJgTwGEJfsgNo73O-1">
          <mxGeometry x="344" y="190" width="90" height="20" as="geometry" />
        </mxCell>
        <mxCell id="VyQ7sG4PmXJxbMCQKmuq-5" style="edgeStyle=orthogonalEdgeStyle;rounded=0;orthogonalLoop=1;jettySize=auto;html=1;exitX=1;exitY=0.75;exitDx=0;exitDy=0;" edge="1" parent="dU9eeJgTwGEJfsgNo73O-1" source="VyQ7sG4PmXJxbMCQKmuq-3" target="VyQ7sG4PmXJxbMCQKmuq-17">
          <mxGeometry relative="1" as="geometry">
            <mxPoint x="220" y="330" as="sourcePoint" />
          </mxGeometry>
        </mxCell>
        <mxCell id="VyQ7sG4PmXJxbMCQKmuq-11" value="" style="whiteSpace=wrap;html=1;aspect=fixed;" vertex="1" parent="dU9eeJgTwGEJfsgNo73O-1">
          <mxGeometry x="90" y="500" width="210" height="210" as="geometry" />
        </mxCell>
        <mxCell id="VyQ7sG4PmXJxbMCQKmuq-12" value="Create ticket" style="text;html=1;strokeColor=none;fillColor=none;align=center;verticalAlign=middle;whiteSpace=wrap;rounded=0;" vertex="1" parent="dU9eeJgTwGEJfsgNo73O-1">
          <mxGeometry x="130" y="510" width="80" height="40" as="geometry" />
        </mxCell>
        <mxCell id="VyQ7sG4PmXJxbMCQKmuq-13" value="Name" style="rounded=1;whiteSpace=wrap;html=1;" vertex="1" parent="dU9eeJgTwGEJfsgNo73O-1">
          <mxGeometry x="130" y="560" width="90" height="20" as="geometry" />
        </mxCell>
        <mxCell id="VyQ7sG4PmXJxbMCQKmuq-14" value="Title" style="rounded=1;whiteSpace=wrap;html=1;" vertex="1" parent="dU9eeJgTwGEJfsgNo73O-1">
          <mxGeometry x="130" y="585" width="90" height="20" as="geometry" />
        </mxCell>
        <mxCell id="VyQ7sG4PmXJxbMCQKmuq-15" value="Description" style="rounded=1;whiteSpace=wrap;html=1;" vertex="1" parent="dU9eeJgTwGEJfsgNo73O-1">
          <mxGeometry x="130" y="610" width="90" height="20" as="geometry" />
        </mxCell>
        <mxCell id="VyQ7sG4PmXJxbMCQKmuq-16" value="Time" style="rounded=1;whiteSpace=wrap;html=1;" vertex="1" parent="dU9eeJgTwGEJfsgNo73O-1">
          <mxGeometry x="130" y="640" width="90" height="20" as="geometry" />
        </mxCell>
        <mxCell id="VyQ7sG4PmXJxbMCQKmuq-17" value="" style="whiteSpace=wrap;html=1;aspect=fixed;" vertex="1" parent="dU9eeJgTwGEJfsgNo73O-1">
          <mxGeometry x="320" y="500" width="320" height="320" as="geometry" />
        </mxCell>
        <mxCell id="U9SADH60b7zixWZeMFrZ-0" style="edgeStyle=orthogonalEdgeStyle;rounded=0;orthogonalLoop=1;jettySize=auto;html=1;entryX=-0.003;entryY=0.572;entryDx=0;entryDy=0;entryPerimeter=0;" edge="1" parent="dU9eeJgTwGEJfsgNo73O-1" source="VyQ7sG4PmXJxbMCQKmuq-18" target="VyQ7sG4PmXJxbMCQKmuq-17">
          <mxGeometry relative="1" as="geometry" />
        </mxCell>
        <mxCell id="VyQ7sG4PmXJxbMCQKmuq-18" value="Add" style="rounded=1;whiteSpace=wrap;html=1;" vertex="1" parent="dU9eeJgTwGEJfsgNo73O-1">
          <mxGeometry x="115" y="670" width="120" height="30" as="geometry" />
        </mxCell>
        <mxCell id="VyQ7sG4PmXJxbMCQKmuq-21" style="edgeStyle=orthogonalEdgeStyle;rounded=0;orthogonalLoop=1;jettySize=auto;html=1;" edge="1" parent="dU9eeJgTwGEJfsgNo73O-1" source="VyQ7sG4PmXJxbMCQKmuq-19" target="VyQ7sG4PmXJxbMCQKmuq-11">
          <mxGeometry relative="1" as="geometry" />
        </mxCell>
        <mxCell id="VyQ7sG4PmXJxbMCQKmuq-19" value="Create ticket&amp;nbsp;" style="rounded=1;whiteSpace=wrap;html=1;" vertex="1" parent="dU9eeJgTwGEJfsgNo73O-1">
          <mxGeometry x="344" y="550" width="84" height="20" as="geometry" />
        </mxCell>
        <mxCell id="VyQ7sG4PmXJxbMCQKmuq-20" value="Queue" style="text;html=1;strokeColor=none;fillColor=none;align=center;verticalAlign=middle;whiteSpace=wrap;rounded=0;" vertex="1" parent="dU9eeJgTwGEJfsgNo73O-1">
          <mxGeometry x="470" y="510" width="40" height="20" as="geometry" />
        </mxCell>
        <mxCell id="VyQ7sG4PmXJxbMCQKmuq-22" value="Open ticket&amp;nbsp;" style="rounded=1;whiteSpace=wrap;html=1;" vertex="1" parent="dU9eeJgTwGEJfsgNo73O-1">
          <mxGeometry x="386" y="595" width="84" height="20" as="geometry" />
        </mxCell>
        <mxCell id="VyQ7sG4PmXJxbMCQKmuq-23" value="Create ticket&amp;nbsp;" style="rounded=1;whiteSpace=wrap;html=1;" vertex="1" parent="dU9eeJgTwGEJfsgNo73O-1">
          <mxGeometry x="386" y="620" width="84" height="20" as="geometry" />
        </mxCell>
        <mxCell id="VyQ7sG4PmXJxbMCQKmuq-24" value="open ticket 3&amp;nbsp;" style="rounded=1;whiteSpace=wrap;html=1;" vertex="1" parent="dU9eeJgTwGEJfsgNo73O-1">
          <mxGeometry x="386" y="650" width="84" height="20" as="geometry" />
        </mxCell>
        <mxCell id="VyQ7sG4PmXJxbMCQKmuq-25" value="Create ticket&amp;nbsp;" style="rounded=1;whiteSpace=wrap;html=1;" vertex="1" parent="dU9eeJgTwGEJfsgNo73O-1">
          <mxGeometry x="386" y="680" width="84" height="20" as="geometry" />
        </mxCell>
        <mxCell id="VyQ7sG4PmXJxbMCQKmuq-26" value="Done" style="rounded=1;whiteSpace=wrap;html=1;" vertex="1" parent="dU9eeJgTwGEJfsgNo73O-1">
          <mxGeometry x="510" y="595" width="64" height="20" as="geometry" />
        </mxCell>
        <mxCell id="VyQ7sG4PmXJxbMCQKmuq-27" value="Done" style="rounded=1;whiteSpace=wrap;html=1;" vertex="1" parent="dU9eeJgTwGEJfsgNo73O-1">
          <mxGeometry x="510" y="620" width="64" height="20" as="geometry" />
        </mxCell>
        <mxCell id="VyQ7sG4PmXJxbMCQKmuq-28" value="Done" style="rounded=1;whiteSpace=wrap;html=1;" vertex="1" parent="dU9eeJgTwGEJfsgNo73O-1">
          <mxGeometry x="510" y="650" width="64" height="20" as="geometry" />
        </mxCell>
        <mxCell id="VyQ7sG4PmXJxbMCQKmuq-29" value="Done" style="rounded=1;whiteSpace=wrap;html=1;" vertex="1" parent="dU9eeJgTwGEJfsgNo73O-1">
          <mxGeometry x="510" y="680" width="64" height="20" as="geometry" />
        </mxCell>
        <mxCell id="U9SADH60b7zixWZeMFrZ-1" value="" style="whiteSpace=wrap;html=1;aspect=fixed;" vertex="1" parent="dU9eeJgTwGEJfsgNo73O-1">
          <mxGeometry x="350" y="860" width="240" height="240" as="geometry" />
        </mxCell>
      </root>
    </mxGraphModel>
  </diagram>
</mxfile>
